<svg width="30" height="30" viewBox="0 0 30 30" fill="none" xmlns="http://www.w3.org/2000/svg">
<path d="M24 24C24.7956 24 25.5587 24.3161 26.1213 24.8787C26.6839 25.4413 27 26.2044 27 27C27 27.7956 26.6839 28.5587 26.1213 29.1213C25.5587 29.6839 24.7956 30 24 30C23.2044 30 22.4413 29.6839 21.8787 29.1213C21.3161 28.5587 21 27.7956 21 27C21 25.335 22.335 24 24 24ZM0 0H4.905L6.315 3H28.5C28.8978 3 29.2794 3.15804 29.5607 3.43934C29.842 3.72064 30 4.10218 30 4.5C30 4.755 29.925 5.01 29.82 5.25L24.45 14.955C23.94 15.87 22.95 16.5 21.825 16.5H10.65L9.3 18.945L9.255 19.125C9.255 19.2245 9.29451 19.3198 9.36483 19.3902C9.43516 19.4605 9.53054 19.5 9.63 19.5H27V22.5H9C8.20435 22.5 7.44129 22.1839 6.87868 21.6213C6.31607 21.0587 6 20.2956 6 19.5C6 18.975 6.135 18.48 6.36 18.06L8.4 14.385L3 3H0V0ZM9 24C9.79565 24 10.5587 24.3161 11.1213 24.8787C11.6839 25.4413 12 26.2044 12 27C12 27.7956 11.6839 28.5587 11.1213 29.1213C10.5587 29.6839 9.79565 30 9 30C8.20435 30 7.44129 29.6839 6.87868 29.1213C6.31607 28.5587 6 27.7956 6 27C6 25.335 7.335 24 9 24ZM22.5 13.5L26.67 6H7.71L11.25 13.5H22.5Z" fill="black"/>
</svg>
