<svg width="32" height="32" viewBox="0 0 32 32" fill="none" xmlns="http://www.w3.org/2000/svg">
<circle cx="16" cy="16" r="16" fill="#060606"/>
<path d="M22.2587 19.9467V21.9467C22.2595 22.1324 22.2215 22.3162 22.1471 22.4863C22.0727 22.6564 21.9636 22.8091 21.8268 22.9346C21.69 23.0602 21.5285 23.1557 21.3526 23.2152C21.1767 23.2747 20.9903 23.2968 20.8054 23.2801C18.754 23.0572 16.7834 22.3562 15.0521 21.2334C13.4413 20.2098 12.0756 18.8442 11.0521 17.2334C9.9254 15.4942 9.22424 13.5141 9.00541 11.4534C8.98875 11.269 9.01066 11.0832 9.06974 10.9078C9.12883 10.7324 9.22379 10.5712 9.34859 10.4345C9.47339 10.2978 9.62528 10.1885 9.79461 10.1137C9.96393 10.039 10.147 10.0002 10.3321 10.0001H12.3321C12.6556 9.99688 12.9693 10.1115 13.2146 10.3224C13.4599 10.5334 13.6201 10.8264 13.6654 11.1467C13.7498 11.7868 13.9064 12.4152 14.1321 13.0201C14.2218 13.2587 14.2412 13.518 14.188 13.7673C14.1348 14.0166 14.0113 14.2455 13.8321 14.4267L12.9854 15.2734C13.9344 16.9424 15.3164 18.3244 16.9854 19.2734L17.8321 18.4267C18.0133 18.2475 18.2422 18.124 18.4915 18.0708C18.7408 18.0176 19.0001 18.037 19.2387 18.1267C19.8436 18.3524 20.472 18.509 21.1121 18.5934C21.4359 18.6391 21.7317 18.8022 21.9431 19.0517C22.1545 19.3013 22.2669 19.6198 22.2587 19.9467Z" stroke="white" stroke-linecap="round" stroke-linejoin="round"/>
</svg>
