<svg width="32" height="32" viewBox="0 0 32 32" fill="none" xmlns="http://www.w3.org/2000/svg">
<circle cx="16" cy="16" r="16" fill="#060606"/>
<path d="M21.6 11.6C21.6 12.2627 21.0627 12.8 20.4 12.8C19.7373 12.8 19.2 12.2627 19.2 11.6C19.2 10.9373 19.7373 10.4 20.4 10.4C21.0627 10.4 21.6 10.9373 21.6 11.6Z" fill="white"/>
<path fill-rule="evenodd" clip-rule="evenodd" d="M16 20C18.2091 20 20 18.2091 20 16C20 13.7909 18.2091 12 16 12C13.7909 12 12 13.7909 12 16C12 18.2091 13.7909 20 16 20ZM16 18.4C17.3255 18.4 18.4 17.3255 18.4 16C18.4 14.6745 17.3255 13.6 16 13.6C14.6745 13.6 13.6 14.6745 13.6 16C13.6 17.3255 14.6745 18.4 16 18.4Z" fill="white"/>
<path fill-rule="evenodd" clip-rule="evenodd" d="M8 15.68C8 12.9917 8 11.6476 8.52317 10.6208C8.98336 9.71767 9.71767 8.98336 10.6208 8.52317C11.6476 8 12.9917 8 15.68 8H16.32C19.0083 8 20.3524 8 21.3792 8.52317C22.2823 8.98336 23.0166 9.71767 23.4768 10.6208C24 11.6476 24 12.9917 24 15.68V16.32C24 19.0083 24 20.3524 23.4768 21.3792C23.0166 22.2823 22.2823 23.0166 21.3792 23.4768C20.3524 24 19.0083 24 16.32 24H15.68C12.9917 24 11.6476 24 10.6208 23.4768C9.71767 23.0166 8.98336 22.2823 8.52317 21.3792C8 20.3524 8 19.0083 8 16.32V15.68ZM15.68 9.6H16.32C17.6905 9.6 18.6222 9.60124 19.3423 9.66008C20.0438 9.71739 20.4025 9.82128 20.6528 9.94878C21.2549 10.2556 21.7444 10.7451 22.0512 11.3472C22.1787 11.5975 22.2826 11.9562 22.3399 12.6577C22.3988 13.3778 22.4 14.3095 22.4 15.68V16.32C22.4 17.6905 22.3988 18.6222 22.3399 19.3423C22.2826 20.0438 22.1787 20.4025 22.0512 20.6528C21.7444 21.2549 21.2549 21.7444 20.6528 22.0512C20.4025 22.1787 20.0438 22.2826 19.3423 22.3399C18.6222 22.3988 17.6905 22.4 16.32 22.4H15.68C14.3095 22.4 13.3778 22.3988 12.6577 22.3399C11.9562 22.2826 11.5975 22.1787 11.3472 22.0512C10.7451 21.7444 10.2556 21.2549 9.94878 20.6528C9.82128 20.4025 9.71739 20.0438 9.66008 19.3423C9.60124 18.6222 9.6 17.6905 9.6 16.32V15.68C9.6 14.3095 9.60124 13.3778 9.66008 12.6577C9.71739 11.9562 9.82128 11.5975 9.94878 11.3472C10.2556 10.7451 10.7451 10.2556 11.3472 9.94878C11.5975 9.82128 11.9562 9.71739 12.6577 9.66008C13.3778 9.60124 14.3095 9.6 15.68 9.6Z" fill="white"/>
</svg>
