<svg width="61" height="61" viewBox="0 0 61 61" fill="none" xmlns="http://www.w3.org/2000/svg">
<path d="M28.275 3.73089C29.2799 2.04596 31.7201 2.04596 32.725 3.73089C33.5536 5.12024 35.4387 5.41881 36.656 4.35351C38.1324 3.06155 40.4532 3.81565 40.8882 5.72862C41.2469 7.30601 42.9475 8.17251 44.4344 7.53552C46.2377 6.76301 48.212 8.19738 48.0345 10.1511C47.8882 11.7622 49.2378 13.1118 50.8489 12.9655C52.8026 12.788 54.237 14.7623 53.4645 16.5656C52.8275 18.0525 53.694 19.7531 55.2714 20.1118C57.1844 20.5468 57.9384 22.8676 56.6465 24.344C55.5812 25.5613 55.8798 27.4464 57.2691 28.275C58.954 29.2799 58.954 31.7201 57.2691 32.725C55.8798 33.5536 55.5812 35.4387 56.6465 36.656C57.9384 38.1324 57.1844 40.4532 55.2714 40.8882C53.694 41.2469 52.8275 42.9475 53.4645 44.4344C54.237 46.2377 52.8026 48.212 50.8489 48.0345C49.2378 47.8882 47.8882 49.2378 48.0345 50.8489C48.212 52.8026 46.2377 54.237 44.4344 53.4645C42.9475 52.8275 41.2469 53.694 40.8882 55.2714C40.4532 57.1844 38.1324 57.9384 36.656 56.6465C35.4387 55.5812 33.5536 55.8798 32.725 57.2691C31.7201 58.954 29.2799 58.954 28.275 57.2691C27.4464 55.8798 25.5613 55.5812 24.344 56.6465C22.8676 57.9384 20.5468 57.1844 20.1118 55.2714C19.7531 53.694 18.0525 52.8275 16.5656 53.4645C14.7623 54.237 12.788 52.8026 12.9655 50.8489C13.1118 49.2378 11.7622 47.8882 10.1511 48.0345C8.19738 48.212 6.76301 46.2377 7.53552 44.4344C8.17251 42.9475 7.30601 41.2469 5.72862 40.8882C3.81565 40.4532 3.06155 38.1324 4.35351 36.656C5.41881 35.4387 5.12024 33.5536 3.73089 32.725C2.04596 31.7201 2.04596 29.2799 3.73089 28.275C5.12024 27.4464 5.41881 25.5613 4.35351 24.344C3.06155 22.8676 3.81565 20.5468 5.72862 20.1118C7.30601 19.7531 8.17251 18.0525 7.53552 16.5656C6.76301 14.7623 8.19738 12.788 10.1511 12.9655C11.7622 13.1118 13.1118 11.7622 12.9655 10.1511C12.788 8.19738 14.7623 6.76301 16.5656 7.53552C18.0525 8.17251 19.7531 7.30601 20.1118 5.72862C20.5468 3.81565 22.8676 3.06155 24.344 4.35351C25.5613 5.41881 27.4464 5.12024 28.275 3.73089Z" fill="black"/>
<path d="M28.8303 10.815C29.5821 9.54764 31.4179 9.54764 32.1697 10.815C32.7892 11.8595 34.2061 12.0845 35.1178 11.2823C36.2223 10.3104 37.9667 10.8854 38.2912 12.3204C38.559 13.5044 39.8378 14.1619 40.9527 13.6817C42.3032 13.1 43.7833 14.1894 43.651 15.6539C43.5417 16.8634 44.5545 17.8875 45.7639 17.777C47.2294 17.6432 48.301 19.1362 47.7242 20.49C47.2477 21.6085 47.8949 22.8957 49.0801 23.1666C50.5172 23.4952 51.0793 25.2439 50.1115 26.3559C49.3122 27.2742 49.533 28.6962 50.5771 29.3223C51.8441 30.082 51.8441 31.918 50.5771 32.6777C49.533 33.3038 49.3122 34.7258 50.1115 35.6441C51.0793 36.7561 50.5172 38.5048 49.0801 38.8334C47.8949 39.1043 47.2477 40.3915 47.7242 41.51C48.301 42.8638 47.2294 44.3568 45.7639 44.223C44.5545 44.1125 43.5417 45.1366 43.651 46.3461C43.7833 47.8106 42.3032 48.9 40.9527 48.3183C39.8378 47.8381 38.559 48.4956 38.2912 49.6796C37.9667 51.1146 36.2223 51.6896 35.1178 50.7177C34.2061 49.9155 32.7892 50.1405 32.1697 51.185C31.4179 52.4524 29.5821 52.4524 28.8303 51.185C28.2108 50.1405 26.7939 49.9155 25.8822 50.7177C24.7777 51.6896 23.0333 51.1146 22.7088 49.6796C22.441 48.4956 21.1622 47.8381 20.0473 48.3183C18.6968 48.9 17.2167 47.8106 17.349 46.3461C17.4583 45.1366 16.4455 44.1125 15.2361 44.223C13.7706 44.3568 12.699 42.8638 13.2758 41.51C13.7523 40.3915 13.1051 39.1043 11.9199 38.8334C10.4828 38.5048 9.92068 36.7561 10.8885 35.6441C11.6878 34.7258 11.467 33.3038 10.4229 32.6777C9.15594 31.918 9.15594 30.082 10.4229 29.3223C11.467 28.6962 11.6878 27.2742 10.8885 26.3559C9.92068 25.2439 10.4828 23.4952 11.9199 23.1666C13.1051 22.8957 13.7523 21.6085 13.2758 20.49C12.699 19.1362 13.7706 17.6432 15.2361 17.777C16.4455 17.8875 17.4583 16.8634 17.349 15.6539C17.2167 14.1894 18.6968 13.1 20.0473 13.6817C21.1622 14.1619 22.441 13.5044 22.7088 12.3204C23.0333 10.8854 24.7777 10.3104 25.8822 11.2823C26.7939 12.0845 28.2108 11.8595 28.8303 10.815Z" fill="#F5D114"/>
<path d="M19.2642 38V23.4545H28.8949V25.9901H22.3395V29.456H28.2557V31.9915H22.3395V38H19.2642ZM30.9634 38V23.4545H33.989V28.9233H34.0813C34.2139 28.6297 34.4057 28.3314 34.6566 28.0284C34.9123 27.7206 35.2437 27.465 35.6509 27.2614C36.0629 27.053 36.5742 26.9489 37.185 26.9489C37.9805 26.9489 38.7144 27.1572 39.3867 27.5739C40.0591 27.9858 40.5965 28.6084 40.9989 29.4418C41.4014 30.2704 41.6026 31.3097 41.6026 32.5597C41.6026 33.7765 41.4061 34.804 41.0131 35.642C40.6249 36.4754 40.0946 37.1075 39.4222 37.5384C38.7546 37.9645 38.0065 38.1776 37.1779 38.1776C36.5908 38.1776 36.0913 38.0805 35.6793 37.8864C35.2721 37.6922 34.9383 37.4484 34.6779 37.1548C34.4175 36.8565 34.2186 36.5559 34.0813 36.2528H33.9464V38H30.9634ZM33.9251 32.5455C33.9251 33.1941 34.015 33.7599 34.195 34.2429C34.3749 34.7259 34.6353 35.1023 34.9762 35.3722C35.3171 35.6373 35.7314 35.7699 36.2191 35.7699C36.7115 35.7699 37.1282 35.6349 37.4691 35.3651C37.81 35.0904 38.0681 34.7116 38.2433 34.2287C38.4232 33.741 38.5131 33.1799 38.5131 32.5455C38.5131 31.9157 38.4255 31.3617 38.2504 30.8835C38.0752 30.4053 37.8171 30.0312 37.4762 29.7614C37.1353 29.4915 36.7163 29.3565 36.2191 29.3565C35.7267 29.3565 35.31 29.4867 34.9691 29.7472C34.6329 30.0076 34.3749 30.3769 34.195 30.8551C34.015 31.3333 33.9251 31.8968 33.9251 32.5455Z" fill="black"/>
</svg>
