<svg width="32" height="32" viewBox="0 0 32 32" fill="none" xmlns="http://www.w3.org/2000/svg">
<circle cx="16" cy="16" r="16" fill="#060606"/>
<path d="M16.498 8.5293C13.2769 8.5293 10.6548 11.1514 10.6548 14.3725C10.6548 20.0403 16.1686 24.3491 16.1686 24.3491C16.2627 24.4243 16.3796 24.4651 16.5 24.4651C16.6204 24.4651 16.7372 24.4243 16.8314 24.3491C16.8314 24.3491 22.3452 20.0403 22.3452 14.3725C22.3452 11.1514 19.7191 8.5293 16.498 8.5293ZM16.498 9.59206C19.1449 9.59206 21.2824 11.7256 21.2824 14.3725C21.2824 19.0092 17.0838 22.6726 16.5019 23.1687C15.9228 22.675 11.7175 19.011 11.7175 14.3725C11.7175 11.7256 13.8511 9.59206 16.498 9.59206Z" fill="white"/>
<path d="M16.4982 11.7175C15.0375 11.7175 13.8433 12.9118 13.8433 14.3725C13.8433 15.8332 15.0375 17.0313 16.4982 17.0313C17.9589 17.0313 19.1571 15.8332 19.1571 14.3725C19.1571 12.9118 17.9589 11.7175 16.4982 11.7175ZM16.4982 12.7803C17.3847 12.7803 18.0943 13.486 18.0943 14.3725C18.0943 15.259 17.3847 15.9686 16.4982 15.9686C15.6117 15.9686 14.906 15.259 14.906 14.3725C14.906 13.486 15.6117 12.7803 16.4982 12.7803Z" fill="white"/>
</svg>
