<svg width="32" height="32" viewBox="0 0 32 32" fill="none" xmlns="http://www.w3.org/2000/svg">
<circle cx="16" cy="16" r="16" fill="#060606"/>
<path d="M12.6499 23C10.5703 23 8.63168 22.3864 7 21.3276C8.38535 21.4185 10.8302 21.2007 12.3509 19.7292C10.0633 19.6227 9.0316 17.8428 8.89703 17.0822C9.0914 17.1582 10.0184 17.2495 10.5417 17.0365C7.91022 16.3671 7.50652 14.0243 7.59624 13.3093C8.08964 13.6592 8.92694 13.7809 9.25587 13.7505C6.8038 11.9706 7.68595 9.2931 8.11954 8.71501C9.87924 11.1883 12.5165 12.5773 15.7791 12.6546C15.7176 12.3809 15.6851 12.0959 15.6851 11.8032C15.6851 9.70277 17.3586 8 19.423 8C20.5016 8 21.4735 8.46484 22.1558 9.20837C22.8766 9.03703 23.9613 8.63591 24.4916 8.28905C24.2243 9.26268 23.3922 10.0749 22.8888 10.3759C22.8847 10.3656 22.893 10.3862 22.8888 10.3759C23.331 10.3081 24.5274 10.0748 25 9.74949C24.7663 10.2965 23.884 11.2059 23.16 11.7151C23.2947 17.7422 18.7492 23 12.6499 23Z" fill="#FAFBFC"/>
</svg>
